<svg xmlns="http://www.w3.org/2000/svg" width="24" height="18" viewBox="0 0 24 18"><defs><style>.a{fill:#00a99d;}</style></defs><path class="a" d="M29.584,1686.437c-.35-.412-.536-.653-.745-.873-1.495-1.569-3-3.131-4.489-4.7a8.314,8.314,0,0,1-.753-.89.836.836,0,0,1,.134-1.15.946.946,0,0,1,1.179-.214,2.605,2.605,0,0,1,.65.538q3.469,3.614,6.924,7.239c.9.946.892,1.252-.02,2.213q-3.376,3.554-6.764,7.1a4.585,4.585,0,0,1-.62.583,1,1,0,0,1-1.287-.048.925.925,0,0,1-.148-1.323,5.326,5.326,0,0,1,.563-.636q2.353-2.468,4.707-4.935c.19-.2.361-.418.668-.778-.524-.022-.9-.051-1.266-.051q-8.583,0-17.165,0a8.27,8.27,0,0,1-1.078-.031.984.984,0,0,1-.911-.9.923.923,0,0,1,.736-1.025,4.6,4.6,0,0,1,1.17-.111q8.583-.01,17.165,0Z" transform="translate(-9.153 -1678.489)"/></svg>