<svg height='300px' width='300px'  fill="#000000" xmlns="http://www.w3.org/2000/svg" xmlns:xlink="http://www.w3.org/1999/xlink" version="1.1" x="0px" y="0px" viewBox="0 0 100 100" style="enable-background:new 0 0 100 100;" xml:space="preserve"><path d="M57.9,51.3l32.4-32.4c2.2-2.2,2.2-5.8,0-8c-2.2-2.2-5.8-2.2-8,0L50.2,42.9L18.1,10.8c-2.2-2.2-5.8-2.2-8,0  c-2.2,2.2-2.2,5.8,0,8l32.4,32.4L10.1,83.7c-2.2,2.2-2.2,5.8,0,8c2.2,2.2,5.8,2.2,8,0l32.1-32.1l32.1,32.1c2.2,2.2,5.8,2.2,8,0  c2.2-2.2,2.2-5.8,0-8L57.9,51.3z"></path></svg>