<svg xmlns="http://www.w3.org/2000/svg" width="20.511" height="20.503" viewBox="0 0 20.511 20.503"><defs><style>.a{stroke:#000;stroke-width:0.5px;}</style></defs><g transform="translate(0.255 -5.731)"><path class="a" d="M275.64,262.249h0a.4.4,0,0,0-.725,0l-2.445,5.245a.4.4,0,1,0,.726.338l.764-1.638H276.6l.763,1.638a.4.4,0,1,0,.726-.338Zm-1.308,3.144.945-2.028.945,2.028Z" transform="translate(-261.89 -245.796)"/><path class="a" d="M19.982,25.462l-1.074-3.407a6.468,6.468,0,0,0,.586-3.687,6.284,6.284,0,0,0-1.736-3.562,6.026,6.026,0,0,0-5.085-1.793,6.377,6.377,0,0,0-.634-3.617.386.386,0,0,0-.526-.173.4.4,0,0,0-.169.539,5.563,5.563,0,0,1-.977,6.382,5.3,5.3,0,0,1-6.308.96.383.383,0,0,0-.3-.028L1,17.985l.889-2.823a.408.408,0,0,0-.027-.311A5.619,5.619,0,0,1,2.8,8.391a5.243,5.243,0,0,1,6.236-1,.386.386,0,0,0,.526-.172.4.4,0,0,0-.168-.539,5.976,5.976,0,0,0-3.713-.627A6.039,6.039,0,0,0,2.243,7.825,6.283,6.283,0,0,0,.507,11.387a6.473,6.473,0,0,0,.585,3.687L.019,18.482a.407.407,0,0,0,.1.406.384.384,0,0,0,.4.1l3.328-1.1a6.066,6.066,0,0,0,3.49.614,6.35,6.35,0,0,0,1.754,5.187,6.03,6.03,0,0,0,7.08,1.178l3.328,1.1a.384.384,0,0,0,.4-.1A.407.407,0,0,0,19.982,25.462Zm-3.734-1.408a.383.383,0,0,0-.3.028,5.231,5.231,0,0,1-6.308-.96,5.547,5.547,0,0,1-1.495-4.78,6.045,6.045,0,0,0,2.778-1.634,6.266,6.266,0,0,0,1.6-2.865A5.257,5.257,0,0,1,17.2,15.371a5.617,5.617,0,0,1,.937,6.459.409.409,0,0,0-.027.312L19,24.964Z" transform="translate(0)"/><path class="a" d="M90.179,81.593a3.119,3.119,0,1,0-1.216,2.466l1.018,1.018a.4.4,0,0,0,.566-.566L89.53,83.493A3.1,3.1,0,0,0,90.179,81.593Zm-1.221,1.328-.941-.941a.4.4,0,1,0-.566.566l.941.941a2.317,2.317,0,1,1,.566-.566Z" transform="translate(-80.711 -69.592)"/><path class="a" d="M262.983,48.279a.4.4,0,0,0,.285-.681h0a.4.4,0,1,0-.284.682Z" transform="translate(-252.335 -39.832)"/></g></svg>