<svg xmlns="http://www.w3.org/2000/svg" width="12" height="12" viewBox="0 0 12 12"><defs><style>.a{fill:#00a99d;}</style></defs><g transform="translate(-3.375 -3.375)"><path class="a" d="M10.1,17.537l-.035,0a.48.48,0,0,0-.278.13L7.915,19.543a2.111,2.111,0,0,1-2.986-2.986l1.989-1.989a2.1,2.1,0,0,1,.33-.27,2.131,2.131,0,0,1,.429-.217,2.03,2.03,0,0,1,.435-.107,2.055,2.055,0,0,1,.3-.02c.041,0,.081,0,.133.006a2.105,2.105,0,0,1,1.357.609,2.079,2.079,0,0,1,.5.791.456.456,0,0,0,.559.293l.009,0s.006,0,.006,0a.453.453,0,0,0,.3-.554,2.627,2.627,0,0,0-.713-1.189,3.052,3.052,0,0,0-1.67-.849c-.055-.009-.11-.017-.165-.023a2.991,2.991,0,0,0-.322-.017c-.075,0-.151,0-.223.009a2.924,2.924,0,0,0-.47.072c-.032.006-.061.014-.093.023a3.015,3.015,0,0,0-.565.212,2.978,2.978,0,0,0-.8.577L4.259,15.9a3.058,3.058,0,0,0-.884,2.16,3.048,3.048,0,0,0,5.2,2.154l1.893-1.893A.459.459,0,0,0,10.1,17.537Z" transform="translate(0 -5.725)"/><path class="a" d="M20.476,4.265a3.055,3.055,0,0,0-4.311,0L14.319,6.111a.466.466,0,0,0,.293.794.471.471,0,0,0,.368-.133l1.849-1.844a2.111,2.111,0,0,1,2.986,2.986L17.826,9.9a2.1,2.1,0,0,1-.33.27,2.131,2.131,0,0,1-.429.217,2.03,2.03,0,0,1-.435.107,2.055,2.055,0,0,1-.3.02c-.041,0-.084,0-.133-.006a2.083,2.083,0,0,1-1.832-1.348.463.463,0,0,0-.554-.284.468.468,0,0,0-.328.594,2.648,2.648,0,0,0,.687,1.087h0l.006.006a3.052,3.052,0,0,0,1.835.873,2.991,2.991,0,0,0,.322.017q.113,0,.226-.009a3.314,3.314,0,0,0,.559-.093,3.015,3.015,0,0,0,.565-.212,2.978,2.978,0,0,0,.8-.577l1.989-1.989a3.051,3.051,0,0,0-.006-4.313Z" transform="translate(-5.997)"/></g></svg>