<svg xmlns="http://www.w3.org/2000/svg" width="148" height="60" viewBox="0 0 148 60"><defs><style>.a{fill:#06a99d;}.b{fill:#5f6062;}.c{fill:#606163;}.d{fill:#07a99d;}.e{fill:#616264;}.f{fill:#626365;}.g{fill:#646567;}.h{fill:#78c9c2;}</style></defs><g transform="translate(-318.1 -277.712)"><path class="a" d="M846.959,375.376c3.458-.206,6.915-.426,10.374-.615,2.37-.129,4.742-.213,7.113-.322,3.605-.167,7.213-.277,10.821-.252,3.12.021,6.241-.048,9.36.095a24.31,24.31,0,0,1,6.035.858,6.6,6.6,0,0,1,1.443.628,2.55,2.55,0,0,1,1.278,3.124,6.639,6.639,0,0,0-.056,3.487,5.547,5.547,0,0,0,2.768,3.435,12.006,12.006,0,0,0,4.381,1.37,24.909,24.909,0,0,0,5.1.169,36.666,36.666,0,0,0,7.337-1.276,45.652,45.652,0,0,0,15.834-8.038,40.163,40.163,0,0,0,4.769-4.262c.044-.047.1-.088.149-.137.046.12-.026.2-.06.284q-2.127,5.341-4.256,10.681a1.175,1.175,0,0,1-.3.444,34.65,34.65,0,0,1-9.092,5.991,31.137,31.137,0,0,1-10.438,2.834,26.347,26.347,0,0,1-9.643-.761,11.815,11.815,0,0,1-5.888-3.547,8.384,8.384,0,0,1-2.029-4.208,7.343,7.343,0,0,1,.159-2.365,4.941,4.941,0,0,1,.139-.644,3.15,3.15,0,0,0-.59-2.73,5.228,5.228,0,0,0-2.695-1.954,15.959,15.959,0,0,0-3.5-.735c-2.539-.36-5.089-.632-7.643-.847-1.993-.167-3.989-.3-5.985-.411-6.425-.357-12.856-.418-19.289-.348-1.866.02-3.732.079-5.6.12C846.956,375.421,846.957,375.4,846.959,375.376Z" transform="translate(-467.579 -84.981)"/><path class="a" d="M924.354,277.712c-.1.642-.305,1.26-.469,1.887q-1.251,4.77-2.515,9.537a1.082,1.082,0,0,1-.293.509,21.1,21.1,0,0,1-5.208,3.679,32.031,32.031,0,0,1-9.966,3.232,37.894,37.894,0,0,1-6.2.509,9.946,9.946,0,0,1-4.958-1.223,4.433,4.433,0,0,1-1.453-1.282,2.836,2.836,0,0,1-.3-2.909,3.731,3.731,0,0,0,.284-2.187,2.373,2.373,0,0,0-1.225-1.65,5.549,5.549,0,0,0-2.28-.623,95.111,95.111,0,0,0-11.3-.312q-5.01.087-10.012.379c-3.879.22-7.756.455-11.628.778q-4.576.382-9.152.771c-.9.077-1.79.171-2.686.257l-.009-.093c2.3-.3,4.59-.6,6.886-.888q3.2-.4,6.409-.78,3.449-.4,6.9-.781,3.167-.345,6.337-.658c2.075-.208,4.15-.413,6.227-.6,1.715-.157,3.432-.3,5.148-.43,2.184-.171,4.369-.331,6.555-.492a17.133,17.133,0,0,1,4.009.034,4.566,4.566,0,0,1,1.632.513,1.968,1.968,0,0,1,.982,2.51,4.276,4.276,0,0,1-1,1.687,1.432,1.432,0,0,0,.489,2.383,6.066,6.066,0,0,0,2.213.429,24.4,24.4,0,0,0,7.374-.924,35.188,35.188,0,0,0,11.972-5.564,26.971,26.971,0,0,0,7.13-7.589c.026-.043.035-.114.114-.1Z" transform="translate(-465.835)"/><path class="b" d="M318.124,521.644h1.8c.785,0,1.57.012,2.354-.007.263-.006.317.078.313.323-.012.717,0,1.435.009,2.153,0,.081-.029.169.034.244.08,0,.091-.062.117-.107a6.23,6.23,0,0,1,5.817-3.161,7.941,7.941,0,0,1,2.294.305,4.05,4.05,0,0,1,2.959,3.356,6.683,6.683,0,0,1,.12,1.225q0,5.67.01,11.34c0,.247-.042.344-.32.336-.832-.021-1.665-.017-2.5,0-.245,0-.3-.073-.295-.305q.007-5.01-.005-10.02a9.468,9.468,0,0,0-.272-2.5,2.78,2.78,0,0,0-2.881-2.3,4.648,4.648,0,0,0-3.223.968,4.438,4.438,0,0,0-1.644,3.634c-.015,3.4-.009,6.795,0,10.192,0,.25-.046.342-.321.335q-1.219-.031-2.44,0c-.278.007-.321-.089-.322-.337q-.009-5.613-.035-11.225c0-.679-.05-1.357-.1-2.034a3.028,3.028,0,0,0-1.224-2.154c-.087-.072-.181-.136-.271-.2Z" transform="translate(0 -215.586)"/><path class="c" d="M934.5,537.966a19.663,19.663,0,0,1-2.125-.014,2.6,2.6,0,0,1-2.194-1.932c-.045-.125-.087-.252-.132-.378,0-.006-.014-.009-.023-.014-.432.312-.858.636-1.3.934a7.606,7.606,0,0,1-4.678,1.464,3.819,3.819,0,0,1-3.508-2.329,3.75,3.75,0,0,1,.591-4.208,8.684,8.684,0,0,1,3.058-2.186c1.733-.826,3.478-1.626,5.225-2.424a.711.711,0,0,0,.464-.685,7.727,7.727,0,0,0-.125-1.8,1.866,1.866,0,0,0-1.694-1.655,5.183,5.183,0,0,0-2.742.186,4.291,4.291,0,0,0-2.417,2.2c-.091.184-.146.213-.321.1q-.838-.552-1.7-1.07c-.178-.107-.162-.179-.044-.317a5.729,5.729,0,0,1,1.749-1.373,9.04,9.04,0,0,1,3.547-.955,11.857,11.857,0,0,1,3.791.249,3.682,3.682,0,0,1,2.893,3.057,9.064,9.064,0,0,1,.192,1.85c-.006,2.21-.022,4.421,0,6.631a9.241,9.241,0,0,0,.539,3.521A2.175,2.175,0,0,0,934.5,537.966Zm-4.6-9.9c-1.334.622-2.674,1.081-3.9,1.787a7.681,7.681,0,0,0-1.088.742,3.253,3.253,0,0,0-1.342,2.915,2.37,2.37,0,0,0,1.493,2.248,3.4,3.4,0,0,0,2.467.01,7.753,7.753,0,0,0,2.146-1.458.6.6,0,0,0,.232-.515c-.009-1.8-.005-3.6-.005-5.393Z" transform="translate(-532.61 -215.92)"/><path class="c" d="M499.565,538.01a10.449,10.449,0,0,1-2.42-.079,2.66,2.66,0,0,1-1.831-1.825c-.054-.142-.1-.289-.151-.457-.307.229-.6.454-.9.671a8.731,8.731,0,0,1-3.733,1.669,4.6,4.6,0,0,1-3.545-.637,3.961,3.961,0,0,1-.481-6.107,9.444,9.444,0,0,1,2.257-1.611c1.623-.88,3.341-1.557,5-2.359q.426-.205.858-.4a.546.546,0,0,0,.353-.481,6.034,6.034,0,0,0-.192-2.3,1.741,1.741,0,0,0-1.361-1.263,5.325,5.325,0,0,0-2.8.078,4.276,4.276,0,0,0-2.6,2.276c-.082.167-.134.205-.3.094-.559-.367-1.125-.726-1.7-1.069-.188-.113-.177-.189-.048-.338a5.734,5.734,0,0,1,1.83-1.407,10.084,10.084,0,0,1,4.589-.95,11.4,11.4,0,0,1,2.535.252,3.721,3.721,0,0,1,3.023,3.138,9.239,9.239,0,0,1,.184,1.794c-.006,2.21-.015,4.421,0,6.631a10.066,10.066,0,0,0,.434,3.254A2.5,2.5,0,0,0,499.565,538.01Zm-4.544-6.855c0-.937,0-1.875,0-2.812,0-.2-.049-.219-.223-.142-.592.265-1.191.517-1.787.774a12.567,12.567,0,0,0-2.9,1.6,3.263,3.263,0,0,0-1.414,3.049,2.378,2.378,0,0,0,1.041,1.946,3.254,3.254,0,0,0,2.974.212,7.668,7.668,0,0,0,2.134-1.477.488.488,0,0,0,.178-.422C495.018,532.972,495.022,532.063,495.022,531.155Z" transform="translate(-147.98 -215.965)"/><path class="a" d="M1244.609,529.222c.113,0,.121.07.144.117a12.878,12.878,0,0,0,6.669,6.306,19.962,19.962,0,0,0,5.108,1.371,26.116,26.116,0,0,0,5.725.231,29.058,29.058,0,0,0,9.457-2.305,31.081,31.081,0,0,0,5.421-3.015.458.458,0,0,1-.108.305,17.717,17.717,0,0,1-5.161,5.885,17.331,17.331,0,0,1-7.97,3.23,18.1,18.1,0,0,1-10.309-1.435,16.14,16.14,0,0,1-7.279-6.809A18.939,18.939,0,0,1,1244.609,529.222Z" transform="translate(-819.553 -222.775)"/><path class="c" d="M1063.106,532.449a8.239,8.239,0,0,0,1.065,2.515,4.076,4.076,0,0,0,4.091,1.76,3.331,3.331,0,0,0,1.485-.484,2.415,2.415,0,0,0,.442-3.436,4.269,4.269,0,0,0-1.274-1.055c-.61-.361-1.261-.64-1.892-.958a15,15,0,0,1-2.612-1.6,4.191,4.191,0,0,1-1.756-3.814,4.129,4.129,0,0,1,3.148-3.77,7.886,7.886,0,0,1,5.377.449,3.188,3.188,0,0,1,.683.419c.11.085.136.156.052.283-.429.645-.849,1.295-1.294,1.978-.1-.19-.19-.352-.276-.516a3.3,3.3,0,0,0-3.945-1.609,1.88,1.88,0,0,0-.9,3.173,4.587,4.587,0,0,0,1.52,1.059q1.6.771,3.156,1.635a7.093,7.093,0,0,1,2.056,1.631,4.83,4.83,0,0,1-1.876,7.328,7.276,7.276,0,0,1-3.456.5,6.891,6.891,0,0,1-2.456-.5,5.268,5.268,0,0,1-2.646-2.634c-.046-.093-.1-.179-.027-.291C1062.208,533.84,1062.642,533.166,1063.106,532.449Z" transform="translate(-657.88 -215.793)"/><path class="c" d="M610.406,522.807c1.066-.009,2.124-.054,3.183,0a1.86,1.86,0,0,1,1.59,1.018,16.537,16.537,0,0,1,1,2.248q1.6,4.02,3.215,8.033c.145.361.292.721.459,1.13.378-1.023.727-1.992,1.093-2.955q1.416-3.722,2.844-7.44a1.4,1.4,0,0,0-.681-1.936c-.039-.023-.093-.027-.108-.113,1.041,0,2.078-.006,3.115,0,.247,0,.074.168.047.236-.457,1.165-.922,2.326-1.387,3.488q-2.472,6.186-4.938,12.374c-.085.214-.183.3-.414.28a4.256,4.256,0,0,0-.774,0c-.237.023-.33-.082-.415-.285q-2.67-6.368-5.354-12.731a8.593,8.593,0,0,0-1.757-2.768A6.277,6.277,0,0,0,610.406,522.807Z" transform="translate(-258.594 -217.083)"/><path class="d" d="M837.956,402.086c3-.03,5.991-.024,8.986.032,2.593.049,5.185.147,7.776.25,2.333.093,4.662.261,6.989.442,1.936.151,3.872.306,5.8.537a82.9,82.9,0,0,1,11.712,2.064,7.409,7.409,0,0,1,2.359,1.085,5.19,5.19,0,0,1,2.154,3.645c.153.987.1,1.987.226,2.975.039.3.072.606.1.913-.176-.437-.333-.88-.541-1.3a8.719,8.719,0,0,0-5.233-4.611,87.547,87.547,0,0,0-10.625-2.75c-3.565-.713-7.156-1.267-10.763-1.716-3.085-.384-6.177-.715-9.278-.949-3.216-.243-6.433-.457-9.656-.567A.1.1,0,0,1,837.956,402.086Z" transform="translate(-459.828 -110.148)"/><path class="b" d="M853.52,486.08c0,1.34.006,2.632-.006,3.924,0,.237.057.3.3.3.871-.015,1.742,0,2.613-.01.2,0,.262.044.261.251,0,.765.006.765-.746.765-.727,0-1.455.006-2.182,0-.184,0-.242.045-.242.237q.01,5.671.008,11.342a6.271,6.271,0,0,0,.134,1.282,2.983,2.983,0,0,0,1.277,1.9c.3.2.617.371.93.562a15.986,15.986,0,0,1-3.361-.123,2.373,2.373,0,0,1-2.024-2.314,7.949,7.949,0,0,1-.063-1.03q.006-7.753,0-15.505a.49.49,0,0,1,.384-.57C851.7,486.784,852.59,486.43,853.52,486.08Z" transform="translate(-470.941 -184.589)"/><path class="c" d="M764.05,522.687c1.542,0,3.063,0,4.584,0,.208,0,.25.069.25.262q-.007,7.935,0,15.871c0,.215-.078.247-.266.245-.842-.009-1.684-.013-2.526,0-.245,0-.322-.049-.321-.311.011-2.593,0-5.185.008-7.778,0-1.933-.012-3.864-.106-5.8a2.781,2.781,0,0,0-1.46-2.351q-.073-.044-.145-.091C764.065,522.732,764.064,522.721,764.05,522.687Z" transform="translate(-394.534 -216.996)"/><path class="e" d="M1025.585,743.511c.388-1.611.761-3.14,1.119-4.673.047-.2.121-.274.323-.252a4.126,4.126,0,0,0,.459,0c.447,0,.443,0,.487.456.207,2.142.413,4.284.63,6.425.025.247-.017.352-.288.319a3.1,3.1,0,0,0-.6,0c-.181.014-.226-.067-.239-.23-.118-1.5-.242-2.994-.4-4.5-.024.088-.051.176-.072.265-.329,1.385-.662,2.768-.98,4.156-.054.234-.137.33-.392.317-.469-.023-.468-.006-.579-.472q-.484-2.02-.971-4.04c-.015-.061-.005-.135-.1-.178-.065.812-.129,1.616-.193,2.42-.056.7-.116,1.392-.165,2.088-.01.139-.059.181-.19.177-.239-.007-.479-.01-.718,0-.158.007-.193-.049-.178-.2.121-1.189.234-2.379.351-3.569.105-1.066.219-2.131.314-3.2.017-.189.074-.248.256-.235a2.675,2.675,0,0,0,.573,0c.295-.043.384.094.445.359.335,1.452.688,2.9,1.036,4.349C1025.522,743.336,1025.54,743.378,1025.585,743.511Z" transform="translate(-623.212 -408.183)"/><path class="e" d="M1085.877,741.257a1.985,1.985,0,0,1,1.027,2.14,1.858,1.858,0,0,1-1.41,1.661,3.374,3.374,0,0,1-2.352-.17.409.409,0,0,1-.279-.434q.016-2.969,0-5.937a.382.382,0,0,1,.228-.408,3.16,3.16,0,0,1,2.37-.168,1.7,1.7,0,0,1,1.231,1.507A1.829,1.829,0,0,1,1085.877,741.257Zm-1.865,1.689c0,.343,0,.687,0,1.031,0,.082-.019.167.087.218a1.257,1.257,0,1,0,.792-2.385c-.221-.051-.454-.048-.681-.077-.173-.023-.207.058-.2.212C1084.018,742.278,1084.011,742.612,1084.011,742.946Zm0-3.11v.344c0,.811.081.869.882.634l.055-.015a.838.838,0,0,0,.607-.871,1.076,1.076,0,0,0-.406-1.091.591.591,0,0,0-.209-.088,2.179,2.179,0,0,0-.74-.019c-.143.024-.2.076-.191.219C1084.017,739.243,1084.011,739.539,1084.011,739.835Z" transform="translate(-676.591 -407.483)"/><path class="e" d="M1125.4,745.842c-.579,0-.581,0-.723-.548-.108-.416-.218-.831-.316-1.249a.246.246,0,0,0-.29-.23c-.42.014-.842.012-1.262,0a.231.231,0,0,0-.273.211c-.128.529-.277,1.052-.406,1.58-.043.175-.117.258-.31.239a3.343,3.343,0,0,0-.573,0c-.23.017-.3-.031-.221-.283.485-1.648.954-3.3,1.427-4.951.166-.578.338-1.154.493-1.735a.267.267,0,0,1,.313-.235c.724.005.725,0,.919.682q.878,3.1,1.754,6.2c.091.32.089.321-.245.322Zm-1.907-5.24h-.06l-.572,2.2c-.035.134.067.111.135.112.3,0,.593,0,.889,0,.12,0,.183-.032.15-.165Q1123.766,741.675,1123.5,740.6Z" transform="translate(-710.328 -408.24)"/><path class="c" d="M773.416,468.607a1.952,1.952,0,1,1,2.04,1.931A1.971,1.971,0,0,1,773.416,468.607Z" transform="translate(-402.821 -167.323)"/><path class="f" d="M333.557,742.659c0-1.014,0-2.027,0-3.041,0-.14,0-.261.156-.332a2.747,2.747,0,0,1,2.277-.123,2.126,2.126,0,0,1-.812,3.971,4.071,4.071,0,0,1-.515.018c-.185-.012-.225.067-.224.234.006.784,0,1.568.007,2.352,0,.193-.04.264-.25.262-.638-.005-.638,0-.638-.644Zm.875-1.588c0,.421,0,.841,0,1.262,0,.119.016.2.167.2.952.017,1.579-.263,1.628-1.385a2.724,2.724,0,0,0-.029-.428c-.117-1.015-.768-1.183-1.538-1.087-.169.021-.236.11-.23.289C334.442,740.306,334.433,740.688,334.433,741.071Z" transform="translate(-13.68 -408.532)"/><path class="f" d="M901.822,755.473c0,.775,0,1.55,0,2.325a.32.32,0,0,1-.2.334,3.015,3.015,0,0,1-2.01.256,1.4,1.4,0,0,1-1.1-1.518c-.033-1.252-.011-2.506-.011-3.759,0-.062-.024-.16.066-.165a4.6,4.6,0,0,1,.716,0c.13.013.071.158.071.242q.006,1.779,0,3.559c0,.857.528,1.236,1.349.969a.346.346,0,0,0,.281-.388c-.011-1.358,0-2.717-.013-4.075,0-.274.084-.333.337-.325.51.018.511,0,.511.509Z" transform="translate(-513.48 -420.884)"/><path class="f" d="M398.89,754.986a4.15,4.15,0,0,1-.4,1.9,1.506,1.506,0,0,1-1.41.868,1.445,1.445,0,0,1-1.406-.869,4.543,4.543,0,0,1,0-3.884,1.429,1.429,0,0,1,1.385-.853,1.5,1.5,0,0,1,1.423.847A4.2,4.2,0,0,1,398.89,754.986Zm-.845-.055a4.49,4.49,0,0,0-.211-1.58.785.785,0,0,0-.751-.6.752.752,0,0,0-.728.585,5.218,5.218,0,0,0-.028,3.1.793.793,0,0,0,.752.642.829.829,0,0,0,.776-.651A4.439,4.439,0,0,0,398.045,754.931Z" transform="translate(-68.279 -420.194)"/><path class="f" d="M582.684,754.961a4.3,4.3,0,0,1-.4,1.922,1.508,1.508,0,0,1-1.409.87,1.446,1.446,0,0,1-1.408-.866,4.558,4.558,0,0,1-.019-3.859,1.442,1.442,0,0,1,1.425-.882,1.511,1.511,0,0,1,1.41.868A4.318,4.318,0,0,1,582.684,754.961Zm-2.768-.045a4.122,4.122,0,0,0,.255,1.656.76.76,0,0,0,.7.5.74.74,0,0,0,.708-.491,2.16,2.16,0,0,0,.145-.433,6.288,6.288,0,0,0,.084-1.909,3.125,3.125,0,0,0-.218-.973.747.747,0,0,0-.863-.5.761.761,0,0,0-.566.514A4.263,4.263,0,0,0,579.916,754.916Z" transform="translate(-230.849 -420.194)"/><path class="b" d="M620.2,755.039c0-.775.006-1.55,0-2.325a.315.315,0,0,1,.227-.342,3.513,3.513,0,0,1,1.967-.232,1.26,1.26,0,0,1,1.158,1.285c.031,1.339.013,2.679.014,4.019,0,.055.012.145-.051.148a3.932,3.932,0,0,1-.715-.006c-.1-.014-.056-.166-.056-.256q0-1.794,0-3.589a.914.914,0,0,0-.39-.9,1.471,1.471,0,0,0-1.225,0c-.144.048-.088.177-.088.271,0,1.388-.012,2.775.005,4.163,0,.287-.079.349-.349.337-.492-.023-.493-.006-.493-.506Z" transform="translate(-267.27 -420.143)"/><path class="f" d="M462.475,756.763c.018.042.03.067.04.094.213.571.208.588-.368.774a2.553,2.553,0,0,1-1.388.066,1.894,1.894,0,0,1-1.408-1.512,5.008,5.008,0,0,1,0-2.5,1.818,1.818,0,0,1,1.635-1.532,1.507,1.507,0,0,1,1.519.872,3.939,3.939,0,0,1,.342,1.757c0,.146-.072.169-.192.183-.8.092-1.594.2-2.393.28-.214.021-.262.107-.225.289a5.156,5.156,0,0,0,.137.644c.275.816.882,1.043,1.869.777A3.179,3.179,0,0,0,462.475,756.763Zm-2.318-2.07c.582-.075,1.11-.145,1.64-.21.134-.016.2-.063.186-.215a3.547,3.547,0,0,0-.163-.867.793.793,0,0,0-.724-.595.846.846,0,0,0-.789.474,2.8,2.8,0,0,0-.323,1.232C459.963,754.705,460.067,754.714,460.157,754.693Z" transform="translate(-124.883 -420.199)"/><path class="f" d="M961.249,754.851a3.574,3.574,0,0,1,.48-1.928,1.579,1.579,0,0,1,1.471-.778,1.5,1.5,0,0,1,1.361.9,4,4,0,0,1,.33,1.731c0,.144-.068.171-.19.185-.8.092-1.594.2-2.393.28-.211.021-.265.1-.228.287a5.723,5.723,0,0,0,.136.644,1.252,1.252,0,0,0,1.647.841,2.224,2.224,0,0,0,.3-.093c.122-.044.241-.1.361-.145.06.161.12.321.179.482.047.13-.061.167-.138.214a2.1,2.1,0,0,1-3.177-1.314A5.293,5.293,0,0,1,961.249,754.851Zm2.776-.638a3.473,3.473,0,0,0-.153-.808.8.8,0,0,0-.717-.6.85.85,0,0,0-.81.487,2.8,2.8,0,0,0-.315,1.234c-.017.183.089.173.215.157.529-.069,1.058-.14,1.588-.2C964.011,754.46,964.059,754.375,964.026,754.213Z" transform="translate(-568.999 -420.192)"/><path class="c" d="M760.366,754.99c0-.765,0-1.53,0-2.3a.3.3,0,0,1,.2-.331,3.549,3.549,0,0,1,1.909-.256,1.308,1.308,0,0,1,1.243,1.422c.016,1,.005,2.008.006,3.013,0,.268-.009.536,0,.8.008.175-.029.251-.231.25-.6,0-.6.008-.6-.6q0-1.607,0-3.214c0-.852-.382-1.185-1.226-1.063-.467.068-.481.084-.481.549,0,1.349-.006,2.7.006,4.046,0,.233-.07.285-.289.28-.539-.013-.539,0-.539-.54Z" transform="translate(-391.273 -420.129)"/><path class="f" d="M661.795,755.409c0,.564-.007,1.129,0,1.693a.309.309,0,0,1-.2.332,3.01,3.01,0,0,1-1.932.215,1.569,1.569,0,0,1-1.112-2.107,1.683,1.683,0,0,1,.949-1.086,3.328,3.328,0,0,1,1.178-.337c.273-.023.367-.14.316-.4a.467.467,0,0,1,0-.057.875.875,0,0,0-1.035-.913,1.846,1.846,0,0,0-.8.21c-.151.084-.223.075-.282-.106-.122-.373-.122-.385.246-.544a2.64,2.64,0,0,1,1.347-.191,1.459,1.459,0,0,1,1.319,1.625c.014.554,0,1.109,0,1.664Zm-.8.4c0-.334-.006-.668,0-1,0-.15-.036-.208-.192-.174a3.839,3.839,0,0,0-.847.25,1.379,1.379,0,0,0-.5,1.9.725.725,0,0,0,.41.295,1.8,1.8,0,0,0,.958-.015c.139-.038.172-.118.17-.25C660.992,756.479,661,756.145,661,755.811Z" transform="translate(-301.128 -420.156)"/><path class="e" d="M434.99,737.012c0-.717-.006-1.434,0-2.151,0-.2-.053-.289-.256-.254-.267.046-.23-.136-.232-.3s-.025-.341.236-.3c.211.036.257-.072.251-.262a3.734,3.734,0,0,1,.092-1.167,1.42,1.42,0,0,1,1.356-1.039c.158,0,.195.048.191.194-.005.233.056.443-.32.49-.341.043-.45.394-.482.706s0,.611-.011.917c0,.127.049.171.17.163.1-.006.191,0,.287,0,.325,0,.465.212.35.519-.04.108-.123.066-.19.073-.2.021-.457-.088-.576.049s-.037.4-.038.611c0,1.29-.006,2.581,0,3.871,0,.213-.037.3-.277.292-.558-.016-.558,0-.558-.552Q434.99,737.944,434.99,737.012Z" transform="translate(-103.033 -401.96)"/><path class="f" d="M499.58,752.055a1.785,1.785,0,0,1,.951.281c.071.046.163.091.125.2a1.157,1.157,0,0,1-.2.437c-.011.012-.1-.037-.141-.065a1.209,1.209,0,0,0-.539-.178.692.692,0,0,0-.752.943,1.634,1.634,0,0,0,.666.766,4.2,4.2,0,0,1,.816.717,1.512,1.512,0,0,1-.7,2.44,1.965,1.965,0,0,1-1.552-.173c-.079-.044-.2-.085-.17-.2a2.992,2.992,0,0,1,.2-.533c.02-.041.1.031.144.06a1.351,1.351,0,0,0,.734.207.766.766,0,0,0,.758-1.094,1.7,1.7,0,0,0-.663-.732,3.255,3.255,0,0,1-.911-.941,1.4,1.4,0,0,1,.867-2.091A3.224,3.224,0,0,1,499.58,752.055Z" transform="translate(-159.303 -420.114)"/><path class="f" d="M529.134,756.7a1.442,1.442,0,0,0,.852.307.774.774,0,0,0,.756-1.169,1.775,1.775,0,0,0-.606-.637,3.907,3.907,0,0,1-.792-.744,1.466,1.466,0,0,1,.092-1.983,1.671,1.671,0,0,1,1.974-.069c.269.2,0,.375-.046.546-.058.194-.155,0-.233-.019a1.712,1.712,0,0,1-.182-.082.8.8,0,0,0-.966.188.831.831,0,0,0,.09,1.032,3.366,3.366,0,0,0,.609.521,2.694,2.694,0,0,1,.822.828,1.514,1.514,0,0,1-1.377,2.309,2.112,2.112,0,0,1-.944-.207c-.2-.1-.309-.211-.184-.444A2.775,2.775,0,0,0,529.134,756.7Z" transform="translate(-186.624 -420.168)"/><path class="f" d="M799.819,752.133a1.693,1.693,0,0,1,.95.274c.066.043.172.077.127.192a1.248,1.248,0,0,1-.2.438c-.044.047-.1-.03-.145-.059a1.175,1.175,0,0,0-.6-.185.686.686,0,0,0-.715.889,1.458,1.458,0,0,0,.612.77,5.546,5.546,0,0,1,.832.7,1.525,1.525,0,0,1-.672,2.521,2.041,2.041,0,0,1-1.375-.1c-.36-.154-.354-.176-.24-.553.066-.219.114-.336.363-.154a1.119,1.119,0,0,0,.8.151.671.671,0,0,0,.6-.466.921.921,0,0,0-.181-.915,3.445,3.445,0,0,0-.584-.507,2.915,2.915,0,0,1-.835-.9A1.392,1.392,0,0,1,799.819,752.133Z" transform="translate(-424.866 -420.182)"/><path class="e" d="M872.787,744.162c0-.565-.007-1.129,0-1.693,0-.184-.044-.273-.236-.238-.252.047-.246-.11-.246-.287s-.016-.358.256-.307c.177.033.234-.045.225-.222-.013-.277,0-.555-.006-.832a.226.226,0,0,1,.165-.254c.666-.272.664-.276.664.428,0,.067,0,.134,0,.2.011.209-.083.464.038.615s.395.057.6.059c.253,0,.178.177.177.3s.083.317-.174.3c-.019,0-.038,0-.057,0-.582.012-.582.012-.582.586q0,1.421,0,2.841c0,.541.144.7.686.757.047,0,.092,0,.123.047a.431.431,0,0,1-.268.6,1.14,1.14,0,0,1-1.358-1.211c-.017-.564,0-1.129,0-1.693Z" transform="translate(-490.315 -409.584)"/><path class="g" d="M698.428,735.391c0-1.234,0-2.469,0-3.7,0-.2.054-.256.254-.254.591.006.591,0,.591.58,0,2.335,0,4.67.006,7,0,.26-.071.321-.32.312-.526-.019-.526-.005-.526-.523Z" transform="translate(-336.478 -401.861)"/><path class="c" d="M830.285,739.721c0,.442.012.863,0,1.283-.008.209.066.276.26.247a1.224,1.224,0,0,1,.172,0c.4,0,.4,0,.385.405,0,.124-.02.191-.17.192-.207,0-.481-.1-.6.046s-.037.421-.038.639c0,.889,0,1.779,0,2.668,0,.635.086.736.7.829a.159.159,0,0,1,.1.037.446.446,0,0,1-.248.609,1.108,1.108,0,0,1-1.351-1.144c-.025-1.1-.017-2.2-.007-3.3,0-.262,0-.448-.349-.394-.215.033-.154-.158-.143-.26s-.11-.346.141-.319c.349.038.379-.14.346-.4a.933.933,0,0,1,0-.115C829.468,739.95,829.468,739.95,830.285,739.721Z" transform="translate(-451.966 -409.196)"/><path class="c" d="M936.577,743.934c0-.574-.007-1.149,0-1.722,0-.178-.051-.253-.226-.221-.249.046-.279-.086-.274-.292s0-.35.267-.3c.2.037.248-.07.232-.247-.011-.123,0-.249,0-.373,0-.667,0-.661.643-.868.151-.049.177-.015.175.128-.007.383,0,.766-.005,1.148,0,.161.046.23.211.214.1-.01.212.011.315,0,.25-.038.294.075.3.3s-.066.306-.3.3c-.516-.017-.517,0-.517.525q0,1.45,0,2.9a.854.854,0,0,0,.225.658.454.454,0,0,0,.349.1c.12,0,.277-.047.235.161-.034.167.143.418-.194.476a1.136,1.136,0,0,1-1.419-1.134c-.023-.583,0-1.167,0-1.751Z" transform="translate(-546.734 -409.343)"/><path class="g" d="M741.926,743.368c0,1.061,0,2.123,0,3.184,0,.2-.044.261-.251.259-.658,0-.658,0-.658-.653,0-1.989,0-3.978-.005-5.967,0-.235.055-.31.3-.3.611.014.612,0,.612.612Z" transform="translate(-374.16 -409.344)"/><path class="g" d="M372.069,755.082c0-.775.007-1.55,0-2.325a.341.341,0,0,1,.239-.367,4.011,4.011,0,0,1,1.686-.268c.037,0,.1.007.107.019a1.718,1.718,0,0,1-.121.6c-.025.136-.113.089-.2.073a1.8,1.8,0,0,0-.227-.031c-.52-.037-.638.071-.638.582,0,1.33-.006,2.661.006,3.991,0,.231-.065.288-.287.283-.563-.013-.563,0-.563-.577Z" transform="translate(-47.765 -420.173)"/><path class="e" d="M561.993,755.693c0-.813.006-1.626,0-2.439,0-.2.035-.284.262-.28.6.01.6,0,.6.595,0,1.511-.006,3.022.006,4.533,0,.247-.072.3-.3.292-.559-.016-.559,0-.559-.55Z" transform="translate(-215.872 -420.927)"/><path class="b" d="M856.629,755.7c0,.812,0,1.624,0,2.436,0,.185-.028.27-.245.268-.6,0-.6.006-.6-.593,0-1.519,0-3.038-.005-4.557,0-.218.061-.272.273-.269.576.009.576,0,.576.565Z" transform="translate(-475.694 -420.937)"/><path class="g" d="M856.111,735.733a.5.5,0,1,1-.5-.488A.5.5,0,0,1,856.111,735.733Z" transform="translate(-475.106 -405.235)"/><path class="f" d="M562.448,735.737a.49.49,0,0,1-.98-.011.49.49,0,1,1,.98.011Z" transform="translate(-215.411 -405.231)"/><path class="h" d="M829.485,375.729l.009.093a18.088,18.088,0,0,1-2.02.185C828.142,375.906,828.806,375.769,829.485,375.729Z" transform="translate(-450.648 -86.757)"/><path class="h" d="M829.443,388.739l-.005.066a15.938,15.938,0,0,1-2.273.072C827.926,388.865,828.679,388.724,829.443,388.739Z" transform="translate(-450.374 -98.327)"/><path class="h" d="M828.8,402.222a.1.1,0,0,0,0,.048h-1.193v-.048Z" transform="translate(-450.775 -110.269)"/></g></svg>