<svg xmlns="http://www.w3.org/2000/svg" width="17.5" height="17.5" viewBox="0 0 17.5 17.5"><defs><style>.a{fill:none;stroke:#666;stroke-linecap:round;stroke-linejoin:round;stroke-width:1.5px;}</style></defs><g transform="translate(-2.25 -2.25)"><path class="a" d="M16,7.8H14.222a1.756,1.756,0,0,0-1.778,1.733v1.733A1.756,1.756,0,0,0,14.222,13h0A1.756,1.756,0,0,0,16,11.267V7.8A7.9,7.9,0,0,0,8,0,7.9,7.9,0,0,0,0,7.8v3.467A1.756,1.756,0,0,0,1.778,13h0a1.756,1.756,0,0,0,1.778-1.733V9.533A1.756,1.756,0,0,0,1.778,7.8H0" transform="translate(3 3)"/><path class="a" d="M21,14v4q0,3-2,3H14" transform="translate(-2 -2)"/></g></svg>