<svg xmlns="http://www.w3.org/2000/svg" width="24" height="24" viewBox="0 0 24 24"><defs><style>.a{fill:none;}.b{fill:#666;}</style></defs><rect class="a" width="24" height="24"/><path class="b" d="M18.87,3.34H16.75V2.1a.59.59,0,0,0-1.18,0V3.34H8.43V2.1a.59.59,0,0,0-1.18,0V3.34H5.13A3.14,3.14,0,0,0,2,6.48V19.36a3.13,3.13,0,0,0,3.13,3.13h7.69a.59.59,0,0,0,0-1.18H5.13a2,2,0,0,1-1.94-1.95V6.48A1.94,1.94,0,0,1,5.13,4.53H7.25v.84a.59.59,0,0,0,1.18,0V4.53h7.14v.84a.59.59,0,1,0,1.18,0V4.53h2.12a1.94,1.94,0,0,1,1.94,2V19.36a2,2,0,0,1-1.94,1.95H17.76a.59.59,0,0,0,0,1.18h1.11A3.13,3.13,0,0,0,22,19.36V6.48a3.14,3.14,0,0,0-3.13-3.14Z"/><path class="b" d="M14.89,12.92h-2.3V10.61a.59.59,0,0,0-1.18,0v2.9a.59.59,0,0,0,.59.6h2.89a.59.59,0,0,0,.59-.6.58.58,0,0,0-.59-.59Z"/><path class="b" d="M12,7.32a5.81,5.81,0,1,0,5.85,5.8A5.81,5.81,0,0,0,12,7.32Zm0,10.42a4.62,4.62,0,1,1,4.67-4.62A4.62,4.62,0,0,1,12,17.74Z"/></svg>