<svg xmlns="http://www.w3.org/2000/svg" width="214" height="150" viewBox="0 0 214 150"><defs><style>.a{fill:#00a99d;}.b{fill:#f2f2f2;}.c{fill:#3f3d56;}.d{fill:#2f2e41;}.e{fill:#a0616a;}.f{fill:#e6e6e6;}.g{fill:#ffb8b8;}.h{fill:#ccc;}</style></defs><circle class="a" cx="11.589" cy="11.589" r="11.589" transform="translate(97.707 126.505)"/><path class="b" d="M449.1,336.482c6.528-1.948,13.469-3.978,18.647-8.608,4.627-4.137,7.75-10.455,5.833-16.66s-7.642-10.321-13.557-12.374a55.938,55.938,0,0,0-10.374-2.318c-3.814-.552-7.645-1-11.474-1.439q-23.257-2.642-46.689-3.228c-7.708-.193-15.415-.188-23.124-.077-6.885.1-14.136.1-20.523-2.81-4.967-2.26-9.475-6.373-10.859-11.777-1.6-6.238,1.349-12.591,5.576-17.108a45.076,45.076,0,0,1,7.518-6.229c2.914-2,5.93-3.857,9.011-5.591a125.881,125.881,0,0,1,18.967-8.686c3.233-1.168,6.515-2.175,9.825-3.1a84.483,84.483,0,0,0,8.3-2.64c5.222-2.067,10.188-5.569,11.516-11.31,1.258-5.441-.863-11.348-4.583-15.389-4.3-4.676-10.792-6.726-17.012-7.058-6.984-.372-13.806,1.364-20.37,3.567-7,2.35-13.851,5.052-21,6.956a142.141,142.141,0,0,1-21.613,3.991,59.015,59.015,0,0,1-10.847.515,13.164,13.164,0,0,1-8.228-3.246,8.054,8.054,0,0,1-2.647-6.963c.071-.48.8-.276.734.2-.474,3.214,1.725,6.176,4.436,7.693,3.133,1.753,6.944,1.756,10.432,1.555a137.3,137.3,0,0,0,22.455-3.224,181.356,181.356,0,0,0,21.235-6.511c6.635-2.387,13.419-4.716,20.508-5.233,6.151-.449,12.621.442,17.98,3.635a19.764,19.764,0,0,1,9.276,12.856,14.84,14.84,0,0,1-4.414,14.192c-4.141,3.792-9.818,5.413-15.109,6.906a139.031,139.031,0,0,0-19.633,6.981,123.482,123.482,0,0,0-18.468,10.314c-5.644,3.831-11.213,8.651-13,15.485a14.178,14.178,0,0,0,.713,9.567,17.513,17.513,0,0,0,5.647,6.657c5.663,4.139,12.8,4.989,19.639,5.073,7.682.095,15.364-.163,23.049-.037q23.491.383,46.886,2.841,5.862.616,11.71,1.363c3.506.448,7.025.892,10.472,1.687,6.13,1.413,12.094,4.131,15.9,9.293a14.615,14.615,0,0,1,1.26,16.069c-2.926,5.718-8.406,9.355-14.225,11.744-3.117,1.28-6.35,2.249-9.577,3.212a.378.378,0,0,1-.2-.729Z" transform="translate(-270.165 -187.451)"/><circle class="b" cx="6.046" cy="6.046" r="6.046" transform="translate(25.669 11.463)"/><circle class="b" cx="6.046" cy="6.046" r="6.046" transform="translate(68.021 22.932)"/><circle class="b" cx="6.046" cy="6.046" r="6.046" transform="translate(103.756)"/><circle class="b" cx="6.046" cy="6.046" r="6.046" transform="translate(126.058 25.704)"/><circle class="b" cx="6.046" cy="6.046" r="6.046" transform="translate(95.899 55.439)"/><circle class="b" cx="6.046" cy="6.046" r="6.046" transform="translate(57.63 69.803)"/><circle class="b" cx="6.046" cy="6.046" r="6.046" transform="translate(98.18 92.23)"/><circle class="b" cx="6.046" cy="6.046" r="6.046" transform="translate(141.771 104.83)"/><circle class="b" cx="6.046" cy="6.046" r="6.046" transform="translate(192.767 102.058)"/><path class="a" d="M505.538,220.37a33.536,33.536,0,0,0-33.2,32.956c0,.167,0,1.343,0,2.881a8.5,8.5,0,0,0,8.5,8.5h0a8.507,8.507,0,0,0,8.505-8.513c0-1.048,0-1.772,0-1.816a16.123,16.123,0,1,1,24.82,13.574l0,0s-12.1,7.789-15.788,18.475h0a23.681,23.681,0,0,0-.976,6.744c0,.938.055,9.15.162,15.815a8.764,8.764,0,0,0,8.764,8.621h0a8.766,8.766,0,0,0,8.765-8.82c-.037-6.1-.057-13.211-.057-13.727,0-6.561,6.33-13.1,11.529-17.362a34.968,34.968,0,0,0,12.026-19.146,21.854,21.854,0,0,0,.63-4.745,33.443,33.443,0,0,0-33.685-33.442Z" transform="translate(-397.488 -203.238)"/><path class="c" d="M391.361,745.849h-213.4a.3.3,0,1,1,0-.6h213.4a.3.3,0,1,1,0,.6Z" transform="translate(-177.662 -595.849)"/><circle class="d" cx="7.558" cy="7.558" r="7.558" transform="translate(151.683 53.674)"/><path class="e" d="M559.478,546.754h-3.088l-1.469-11.913h4.559Z" transform="translate(-414.313 -400.062)"/><path class="d" d="M540.859,578.626h5.956v3.75h-9.707A3.75,3.75,0,0,1,540.859,578.626Z" transform="translate(-400.995 -432.817)"/><path class="e" d="M654.478,546.754h-3.088l-1.469-11.913h4.559Z" transform="translate(-485.241 -400.062)"/><path class="d" d="M635.859,578.626h5.956v3.75h-9.707A3.75,3.75,0,0,1,635.859,578.626Z" transform="translate(-471.92 -432.817)"/><circle class="e" cx="6.188" cy="6.188" r="6.188" transform="translate(151.894 56.459)"/><path class="d" d="M750.5,452.342l2.769-6.361a7.906,7.906,0,0,0-1.751-8.969,8.024,8.024,0,0,0-.773-.673,7.793,7.793,0,0,0-4.784-1.655,8.106,8.106,0,0,0-3.376.751c-.091.04-.179.083-.27.126-.174.083-.345.174-.511.267a7.981,7.981,0,0,0-3.955,6.016l-1.222,10.238c-.307.8-11.271,29.825-7.437,51.982a1.125,1.125,0,0,0,.962.925l3.887.529a1.133,1.133,0,0,0,1.262-.889l6.522-31.09a.883.883,0,0,1,1.713-.058l9.215,32.695a1.126,1.126,0,0,0,1.086.826,1.294,1.294,0,0,0,.219-.02l4.749-.914a1.126,1.126,0,0,0,.915-1.212C759.021,497.074,755.313,458.094,750.5,452.342Z" transform="translate(-588.716 -363.524)"/><path class="e" d="M706.051,414.684a2.533,2.533,0,0,0,2.669,2.822l3.459,8.312,2.616-3.878-3.685-7.3a2.547,2.547,0,0,0-5.058.042Z" transform="translate(-572.138 -346.885)"/><path class="e" d="M791.68,507.726a2.533,2.533,0,0,0,2.123-3.253l7.277-5.3-4.381-1.641-6.239,5.285a2.547,2.547,0,0,0,1.22,4.909Z" transform="translate(-633.924 -410.553)"/><path class="d" d="M726.545,450.79a4.3,4.3,0,0,1-.831-.082,4.108,4.108,0,0,1-3.01-2.423l-4.846-5.908a1.134,1.134,0,0,1,.28-1.683l3.447-2.134a1.134,1.134,0,0,1,1.566.375l3.415,5.626,6.54-4.834a2.449,2.449,0,0,1,2.849,3.92l-6.528,5.955A4.1,4.1,0,0,1,726.545,450.79Z" transform="translate(-580.731 -366.314)"/><path class="d" d="M810.784,465.162h-.027a1.136,1.136,0,0,1-.834-.4l-3.065-3.576a1.134,1.134,0,0,1,.232-1.681l5.739-3.826-5.2-6.251a2.449,2.449,0,0,1,3.75-3.069l6.319,6.175a4.163,4.163,0,0,1-.926,6.787l-5.165,5.48a1.135,1.135,0,0,1-.825.356Z" transform="translate(-647.191 -371.798)"/><path class="f" d="M785.143,441.859a1.163,1.163,0,0,1-.147-.009,1.124,1.124,0,0,1-.935-.773l-2.3-7.061a.777.777,0,0,1,.4-.938l.075-.035c.068-.032.135-.064.2-.095a8.206,8.206,0,0,1,3.427-.762,7.892,7.892,0,0,1,4.323,1.3.789.789,0,0,1,.227,1.082l-4.321,6.769A1.122,1.122,0,0,1,785.143,441.859Z" transform="translate(-628.644 -361.673)"/><circle class="d" cx="2.473" cy="2.473" r="2.473" transform="translate(162.746 52.911)"/><path class="d" d="M776.661,361.365h0a6.55,6.55,0,0,0-6.55,6.55v2.771h3.408l1.63-2.771.489,2.771h10.344l-2.771-2.771a6.55,6.55,0,0,0-6.55-6.55Z" transform="translate(-619.945 -308.699)"/><path class="d" d="M834.809,357.549a3.817,3.817,0,0,1,4.152-2.619,5.289,5.289,0,0,1,3.565,2.945,29,29,0,0,1,1.584,4.516,8.18,8.18,0,0,0,2.467,4.027,3.671,3.671,0,0,0,4.431.238,5.068,5.068,0,0,1-9.441,1.809,10.963,10.963,0,0,1-1.015-3.842,8.4,8.4,0,0,0-1.225-3.764,3.113,3.113,0,0,0-3.478-1.295Z" transform="translate(-668.052 -303.859)"/><path class="c" d="M482.885,301.793h0a8.5,8.5,0,0,1-8.5-8.5c0-1.539,0-2.714,0-2.882a33.13,33.13,0,0,1,3.869-15.093,33.2,33.2,0,0,0-6.389,19.123c0,.167,0,1.343,0,2.881a8.5,8.5,0,0,0,8.5,8.5h0a8.508,8.508,0,0,0,8.184-6.195A8.47,8.47,0,0,1,482.885,301.793Z" transform="translate(-397.292 -244.335)"/><path class="c" d="M567.69,279.454a16.124,16.124,0,0,1,14.022,22.525A16.122,16.122,0,1,0,554.648,285.1,16.091,16.091,0,0,1,567.69,279.454Z" transform="translate(-459.047 -244.4)"/><path class="c" d="M582.81,488.316h0a8.764,8.764,0,0,1-8.765-8.623c-.107-6.663-.162-14.875-.162-15.813a23.684,23.684,0,0,1,.976-6.744h0a23.941,23.941,0,0,1,1.384-3.2,27.724,27.724,0,0,0-3.9,7.23h0a23.683,23.683,0,0,0-.976,6.743c0,.939.055,9.15.162,15.815a8.764,8.764,0,0,0,8.764,8.621h0a8.767,8.767,0,0,0,8.414-6.309,8.732,8.732,0,0,1-5.9,2.278Z" transform="translate(-471.569 -377.937)"/><path class="g" d="M126.539,547.209h3.088L131.1,535.3h-4.559Z" transform="translate(-94.66 -400.403)"/><path class="d" d="M0,0H9.707V3.75H3.75A3.75,3.75,0,0,1,0,0H0Z" transform="translate(40.923 149.674) rotate(179.997)"/><path class="g" d="M82.539,547.209h3.088L87.1,535.3H82.538Z" transform="translate(-61.745 -400.403)"/><path class="d" d="M0,0H9.707V3.75H3.75A3.75,3.75,0,0,1,0,0H0Z" transform="translate(29.838 149.674) rotate(179.997)"/><path class="d" d="M258.646,597.679l-3.017-.159a1.177,1.177,0,0,1-1.113-1.251l3.606-39.921,16.6,4.481,1.6-.436-5,35.341a1.183,1.183,0,0,1-1.1.994l-3.252.151a1.177,1.177,0,0,1-1.242-1.208l.589-21.211a.393.393,0,0,0-.777-.091l-5.683,22.374a1.17,1.17,0,0,1-1.151.939Z" transform="translate(-235.153 -454.537)"/><circle class="g" cx="6.188" cy="6.188" r="6.188" transform="translate(26.246 56.749)"/><path class="h" d="M265.48,445.177l.68,14.679.246,5.34a1.17,1.17,0,0,0,.775,1.052l15.956,5.78a1.129,1.129,0,0,0,.4.071,1.17,1.17,0,0,0,1.175-1.206L284.06,444.5a9.3,9.3,0,0,0-7.745-8.988c-.154-.024-.311-.047-.468-.068a9.132,9.132,0,0,0-7.347,2.378A9.381,9.381,0,0,0,265.48,445.177Z" transform="translate(-243.348 -364.053)"/><path class="g" d="M345.771,535.631a2.535,2.535,0,0,1-1.353-3.836l-5.411-7.195,4.669-.289,4.422,6.877a2.547,2.547,0,0,1-2.328,4.443Z" transform="translate(-298.119 -430.584)"/><path class="h" d="M323.917,476.36a1.17,1.17,0,0,1-.64-.634L315.125,456.3a3.14,3.14,0,0,1,5.79-2.43l8.152,19.422a1.179,1.179,0,0,1-.63,1.541l-3.619,1.519a1.169,1.169,0,0,1-.9,0Z" transform="translate(-280.101 -376.453)"/><path class="c" d="M298.094,499.657l7.83-14.992a1.229,1.229,0,0,1,1.656-.52l11.365,5.935a1.229,1.229,0,0,1,.52,1.656l-7.83,14.992a1.229,1.229,0,0,1-1.656.52l-11.365-5.935A1.229,1.229,0,0,1,298.094,499.657Z" transform="translate(-267.65 -400.433)"/><path class="g" d="M285.428,500.829a2.535,2.535,0,0,0-3.909-1.124l-7.5-4.977L274,499.407l7.126,4.009a2.547,2.547,0,0,0,4.3-2.587Z" transform="translate(-249.734 -408.456)"/><path class="h" d="M254.742,463.965l-6.131-4.857a4.324,4.324,0,0,1-1.971-6.836l5.567-7.3a2.543,2.543,0,0,1,4.315,2.591l-4.4,7.205,6.473,3.07a1.177,1.177,0,0,1,.491,1.693l-2.613,4.135a1.179,1.179,0,0,1-.8.532l-.019,0A1.183,1.183,0,0,1,254.742,463.965Z" transform="translate(-228.532 -370.542)"/><path class="d" d="M278.812,380.391a.538.538,0,0,1,.468-.71,1.242,1.242,0,0,1,.876.432,3.484,3.484,0,0,0,.774.664.666.666,0,0,0,.876-.158,1.218,1.218,0,0,0-.047-.946,9.3,9.3,0,0,1-.411-2.461,4.334,4.334,0,0,1,.62-2.632,3.483,3.483,0,0,1,2.984-1.269,20.054,20.054,0,0,1,3.352.594,1.126,1.126,0,0,0,1.1-.184,1.413,1.413,0,0,0,.057-1.261,8.755,8.755,0,0,0-1.326-3.162,4.761,4.761,0,0,0-3.038-1.711,7.29,7.29,0,0,0-3.392.385,9.094,9.094,0,0,0-4.455,3.1,7.365,7.365,0,0,0-1.405,5.442,6.718,6.718,0,0,0,2.49,4.246Z" transform="translate(-251.054 -313.312)"/><path class="c" d="M572.031,681.67a11.587,11.587,0,0,1-4.3-18.01A11.588,11.588,0,1,0,583.493,680.4,11.581,11.581,0,0,1,572.031,681.67Z" transform="translate(-465.297 -534.815)"/></svg>